<svg xmlns="http://www.w3.org/2000/svg" width="32" height="32"><path d="M23.795 17.044a24.58 24.58 0 003.997-6.358l.061-.16c.269-.63.556-1.442.799-2.272l.043-.171c.091-.337.187-.741.275-1.196l.054-.286c.02-.135.042-.253.062-.387.144-.824.226-1.772.226-2.74 0-.251-.006-.5-.016-.748l.001.035a10.722 10.722 0 01-.052-1.43v.015c.024-.034.047-.051.069-.084a.503.503 0 00.176-.508l.001.003a.279.279 0 01-.047-.05l-.001-.001a.932.932 0 01.044-.428l-.002.007c.052-.219-.103-.337-.337-.269a1.306 1.306 0 01-.493.101h-.001l-.057-.051a.569.569 0 00-.458.3l-.002.003c-.017.017-.034.051-.049.067s-.657.101-1.396.253a16.732 16.732 0 00-5.602 2.264l.068-.041a22.307 22.307 0 00-6.869 6.833l-.053.089a2.546 2.546 0 01-2.036 1.061h-.002a9.656 9.656 0 00-9.556 6.099l-.023.065a.842.842 0 00.92 1.211l-.005.001c13.32-.253 14.535 7.916 14.484 11.2-.012.741.461 1.112 1.108.724 4.84-2.88 4.52-8.32 4.072-10.829a3.139 3.139 0 01.6-2.332l-.006.008zm-1.499-3.671a2.708 2.708 0 01-1.975.852c-.5 0-.968-.135-1.37-.37l.013.007a2.598 2.598 0 01-1.003-3.582l-.007.012a2.96 2.96 0 01.312-.424l-.003.003a2.707 2.707 0 013.344-.481l-.013-.007a2.597 2.597 0 011.004 3.583l.007-.012a3.39 3.39 0 01-.314.425l.004-.004zm-11.717 17.97a11.838 11.838 0 004.395-5.511l.027-.08c.286-.691-.106-1.027-.743-.64a12.04 12.04 0 00-4.434 5.461l-.029.08c-.286.691.141 1.078.783.691zm-4.755.522c2.972-1.953 5.216-4.802 6.367-8.158l.033-.112c.264-.707-.133-1.044-.78-.657-2.971 1.941-5.226 4.762-6.415 8.09l-.035.112c-.256.691.17 1.078.83.724zm-.857-4.867a11.836 11.836 0 004.394-5.511l.027-.08c.286-.691-.106-1.027-.743-.623a12.017 12.017 0 00-4.433 5.444l-.029.08c-.288.691.136 1.078.783.691z"/></svg>