<svg xmlns="http://www.w3.org/2000/svg" width="32" height="32"><path d="M12.241 6.925A2.605 2.605 0 119.627 9.53v-.007a2.607 2.607 0 012.607-2.598h.007zm5.68 10.637a1.67 1.67 0 11-1.675 1.676 1.68 1.68 0 011.674-1.677zm9.189-3.828C29.216 3.456 20.838-1.255 11.545.23S2.598 7.321 2.051 9.996C.962 16.703 7.885 24.204 7.885 24.204l-.396 7.795h11.274l.863-3.584s.489.819 3.401 1.062 2.56-3.302 2.56-3.302 1.939-.858 1.939-1.498a2.881 2.881 0 00-1.141-1.452l-.011-.007a2.217 2.217 0 001.688-.3l-.009.005c.444-.525-.545-2.394-.545-2.394a3.745 3.745 0 002.42-1.026l-.002.002c.901-.986-2.817-3.891-2.817-5.773zm-16.101 1.408s-.063-.691-.093-1.037a5.533 5.533 0 01-.845-.309l.035.014c-.307.269-.92.781-.92.781s-.105.064-.157.09-1.024-.09-1.024-.09l-1.679-1.984v-1.178s.64-.538.969-.819a4.008 4.008 0 01-.127-.794l-.001-.012-1.268-.576-.339-.986.04-.166 1.084-2.355 1.152-.307 1.092.499a6.32 6.32 0 01.687-.47l.03-.017c-.037-.435-.108-1.306-.108-1.306l.838-.845 2.589-.205.838.832s.052.666.081.998a7.46 7.46 0 011.012.378l-.047-.019c.279-.23.841-.717.841-.717h1.187l1.692 1.971v1.178l-1.03.883c.046.213.078.463.09.719v.011c.433.256 1.299.755 1.299.755l.301 1.139-1.299 2.24-1.152.307-1.011-.576a7.592 7.592 0 01-.604.397c.04.448.128 1.344.128 1.344l-.838.832-2.586.23zm10.549 6.605l-.735.192s-.431-.243-.649-.371a2.432 2.432 0 01-.371.25l-.013.006.078.858-.536.538-1.664.154-.538-.538-.061-.666c-.2-.058-.37-.123-.533-.201l.021.009c-.198.179-.591.512-.591.512a.48.48 0 00-.101.052l.002-.001c-.033.013-.66-.051-.66-.051l-1.076-1.28v-.755s.413-.346.621-.525a2.637 2.637 0 01-.084-.516v-.009a32.334 32.334 0 01-.814-.371l-.218-.627.024-.102.695-1.51.737-.192s.466.205.7.32c.133-.106.283-.212.439-.308l.02-.012-.068-.845.536-.538 1.664-.128.538.538.051.64c.245.072.45.151.648.242l-.029-.012.539-.461h.768l1.085 1.267v.755s-.44.371-.659.563c.03.14.05.302.056.469v.005c.278.154.835.474.835.474l.192.742z"/></svg>