<svg xmlns="http://www.w3.org/2000/svg" width="32" height="32"><path d="M28.753 9.878h-7.179c-.312 0-.398-.195-.223-.459a7.472 7.472 0 001.041-3.826c0-.457-.041-.905-.118-1.339l.007.046c-.185-2.101-.633-2.908-1.252-2.908-1.016 0-2.489 2.198-3.982 4.369a23.036 23.036 0 01-6.903 5.812l-.119.06a8.54 8.54 0 01-.968.451l-.063.022-3.787 1.405a.891.891 0 00-.531.777v11.508c.016.365.206.683.489.874l.004.003 1.631.946c.307.156.665.264 1.044.305l.014.001a7.891 7.891 0 013.832 1.477l-.022-.016c.266.181.666.487.927.668a3.138 3.138 0 001.783.557h11.374a3.775 3.775 0 003.589-2.77l.006-.026c.065-.32.107-.835.167-1.155l2.401-12.828a3.824 3.824 0 00.057-1.171l.001.016a3.308 3.308 0 00-3.216-2.796h-.003zM3.014 12.397H.942a.956.956 0 00-.942.956v.019-.001 13.45c0 .525.419.951.941.964h2.073a.964.964 0 00.942-.964v-.011.001-13.458a.956.956 0 00-.941-.956h-.001z"/></svg>