<svg xmlns="http://www.w3.org/2000/svg" width="32" height="32"><path d="M24.106 11.994c0 4.006-4.052 7.949-4.052 12.006h-8.108c0-3.942-4.052-8-4.052-12.006a8.107 8.107 0 0116.212-.007v.008zm-5.066 16h-6.08a1.005 1.005 0 000 2.01h.186c.438 1.175 1.55 1.997 2.854 1.997s2.416-.822 2.848-1.976l.007-.021h.186a1.005 1.005 0 000-2.01zm0-2.996h-6.08a.998.998 0 000 1.996h6.08a.998.998 0 000-1.996zM4.96 6.861l1.819 1.037a10.13 10.13 0 011.044-1.756l-.02.028-1.825-1.037zm12.051-4.762V0h-2.028v2.099a5.097 5.097 0 012.063.005l-.033-.006zm-5.166.807l-1.05-1.805-1.757 1.011 1.056 1.792a9.699 9.699 0 011.691-.973l.063-.025zm15.19 3.955l-1.012-1.728-1.825 1.037c.371.5.712 1.067.997 1.666l.027.062zm-4.081-4.749L21.2 1.101l-1.05 1.805c.67.299 1.244.633 1.779 1.018l-.029-.02zm-17.09 9.882c.019-.372.056-.715.111-1.053l-.007.054H3.841v2.01h2.134a7.999 7.999 0 01-.107-.992l-.001-.019zm20.164-.999c.048.283.085.627.103.975l.001.023a8.384 8.384 0 01-.115 1.061l.007-.05h2.136v-2.01h-2.13zm-1.664 6.925l1.664.947 1.012-1.741-1.841-1.037a31.566 31.566 0 01-.833 1.83zM4.96 17.126l1.012 1.741 1.645-.934a28.73 28.73 0 01-.824-1.843z"/></svg>