<svg xmlns="http://www.w3.org/2000/svg" width="32" height="32"><path d="M30.066 1.391H1.939A1.97 1.97 0 00-.009 3.36v20.538c0 1.082.868 1.962 1.946 1.981h28.129a1.981 1.981 0 001.948-1.981V3.36a1.97 1.97 0 00-1.947-1.969h-.001zm-.491 21.051H2.428V4.174h27.147v18.268zm-6.23 8.167H8.713l3.68-3.798h7.271zM14.496 9.878h.018a1.322 1.322 0 11-1.322 1.322v-.013c0-.721.583-1.306 1.303-1.309zm5.261 4.272h.017a1.322 1.322 0 11-1.322 1.322v-.003a1.32 1.32 0 011.304-1.319h.001zm5.202-4.62h.025a1.329 1.329 0 11-1.329 1.337v-.015a1.32 1.32 0 011.303-1.32h.001zM6.574 16.125h.024a1.329 1.329 0 11-1.329 1.337v-.015a1.32 1.32 0 011.304-1.32h.001zm13.11-1.043l-5.133-4.424-8.384 6.609.434.807s7.352-6.052 7.841-6.317c.43.362 5.258 4.536 5.258 4.536l5.558-5.092-.601-.682s-4.454 4.09-4.974 4.563z"/></svg>