<!-- Generated by IcoMoon.io -->
<svg version="1.1" xmlns="http://www.w3.org/2000/svg" width="32" height="32" viewBox="0 0 32 32">
<title>icon_fb</title>
<path d="M16 0c-0.001 0-0.003 0-0.004 0-8.839 0-16.004 7.165-16.004 16.004s7.165 16.004 16.004 16.004c8.837 0 16.002-7.163 16.004-16v-0c0-0.001 0-0.003 0-0.004 0-8.837-7.163-16.002-16-16.004h-0zM20.136 16l-2.622 0.009v9.6h-3.597v-9.6h-2.405v-3.312h2.4v-1.955c0-2.698 0.732-4.342 3.909-4.342h2.648v3.312h-1.656c-1.238 0-1.297 0.467-1.297 1.323v1.661h2.976z"></path>
</svg>
