<!-- Generated by IcoMoon.io -->
<svg version="1.1" xmlns="http://www.w3.org/2000/svg" width="32" height="32" viewBox="0 0 32 32">
<title>icon_tw</title>
<path d="M16 0c-8.837 0-16 7.163-16 16s7.163 16 16 16c8.837 0 16-7.163 16-16v0c0-8.837-7.163-16-16-16v0zM22.506 13.111c0.007 0.13 0.009 0.268 0.009 0.406-0.005 4.949-4.018 8.96-8.969 8.96-1.792 0-3.461-0.526-4.862-1.431l0.035 0.021c0.224 0.026 0.485 0.042 0.75 0.043h0.002c0.004 0 0.009 0 0.014 0 1.478 0 2.838-0.508 3.914-1.359l-0.013 0.010c-1.372-0.027-2.527-0.927-2.934-2.166l-0.006-0.022c0.176 0.033 0.379 0.052 0.586 0.052 0.002 0 0.004 0 0.006 0h-0c0.008 0 0.016 0 0.025 0 0.287 0 0.564-0.041 0.826-0.118l-0.021 0.005c-1.452-0.298-2.528-1.565-2.528-3.083 0-0.002 0-0.003 0-0.005v0c0-0.009 0-0.026 0-0.035 0.412 0.23 0.901 0.372 1.422 0.389l0.005 0c-0.85-0.573-1.402-1.533-1.402-2.621 0-0.583 0.158-1.129 0.434-1.597l-0.008 0.015c1.562 1.907 3.871 3.152 6.474 3.286l0.022 0.001c-0.052-0.21-0.081-0.452-0.081-0.701 0-0.006 0-0.012 0-0.018v0.001c0.004-1.738 1.414-3.146 3.152-3.146 0.904 0 1.72 0.381 2.295 0.991l0.001 0.002c0.755-0.152 1.425-0.416 2.030-0.777l-0.029 0.016c-0.244 0.741-0.733 1.345-1.37 1.73l-0.014 0.008c0.672-0.081 1.283-0.255 1.85-0.509l-0.040 0.016c-0.433 0.64-0.955 1.181-1.556 1.622l-0.018 0.013z"></path>
</svg>
