<!-- Generated by IcoMoon.io -->
<svg version="1.1" xmlns="http://www.w3.org/2000/svg" width="32" height="32" viewBox="0 0 32 32">
<title>icon_in</title>
<path d="M16 0c-0.001 0-0.003 0-0.004 0-8.839 0-16.004 7.165-16.004 16.004s7.165 16.004 16.004 16.004c8.837 0 16.002-7.163 16.004-16v-0c0-0.001 0-0.003 0-0.004 0-8.837-7.163-16.002-16-16.004h-0zM12.001 23.758h-3.999v-14.002h3.999v14.002zM10.125 8.891c-0 0-0.001 0-0.001 0-1.037 0-1.877-0.84-1.877-1.877s0.84-1.877 1.877-1.877c1.037 0 1.877 0.84 1.877 1.877v0c0 0.001 0 0.002 0 0.003 0 1.035-0.839 1.874-1.874 1.874-0.003 0-0.005 0-0.008-0h0zM25.998 23.758h-3.999v-8.657c0-1.012-0.289-1.73-1.535-1.73-0.047-0.003-0.102-0.005-0.157-0.005-1.089 0-2.008 0.725-2.303 1.718l-0.004 0.017v8.657h-3.999v-14.002h3.999v1.332c1.102-0.828 2.492-1.327 3.998-1.332h0.001c1.297 0 3.999 0.778 3.999 5.466v8.536z"></path>
</svg>
