<!-- Generated by IcoMoon.io -->
<svg version="1.1" xmlns="http://www.w3.org/2000/svg" width="32" height="32" viewBox="0 0 32 32">
<title>icon_marketing</title>
<path d="M28.636 0h-25.263c-1.858 0.002-3.364 1.507-3.369 3.364v25.272c0.010 1.856 1.513 3.357 3.368 3.364h25.263c1.854-0.009 3.355-1.51 3.364-3.363v-25.272c-0.005-1.856-1.508-3.359-3.364-3.364h-0zM3.654 4.558h24.691v16.848h-24.691v-16.848zM29.686 27.468h-17.24c-0.309 1.279-1.444 2.215-2.797 2.215s-2.488-0.936-2.793-2.195l-0.004-0.020h-4.537v-1.332h4.534c0.306-1.284 1.444-2.224 2.801-2.224s2.495 0.94 2.797 2.204l0.004 0.020h17.238v1.332zM18.946 6.997h3.443v11.555h-3.443v-11.555zM9.444 11.442h3.442v7.109h-3.445v-7.109zM14.195 9.557h3.448v8.995h-3.446v-8.995z"></path>
</svg>
