<!-- Generated by IcoMoon.io -->
<svg version="1.1" xmlns="http://www.w3.org/2000/svg" width="32" height="32" viewBox="0 0 32 32">
<title>icon_branding</title>
<path d="M20.174 30.352c-0.324-0.243-0.55-0.602-0.614-1.015l-0.001-0.009-0.208-1.328h-6.64l-0.21 1.328c-0.064 0.422-0.289 0.781-0.61 1.021l-0.004 0.003c-0.555 0.408-0.994 0.76-0.555 0.824 0.422 0.056 4.406 0 4.701 0s4.278 0.056 4.701 0c0.434-0.064-0.005-0.416-0.56-0.824zM8.545 19.704c1.775-0.016 1.996-0.44 2.574-2.224 1.067-2.816 5.873 0.736 2.895 1.968s-7.245 0.272-5.47 0.256zM26.746 1.16c-0.862-0.688-2.288-0.352-3.187 0.768l-9.106 12.944c-0.899 1.112-0.894 0.904-0.034 1.592s0.654 0.744 1.553-0.368l10.706-11.656c0.899-1.112 0.933-2.584 0.069-3.28zM24.404 2.712c-0.177-0.181-0.365-0.349-0.564-0.503l-0.012-0.009c0.378-0.549 1.004-0.904 1.712-0.904 0.092 0 0.182 0.006 0.271 0.018l-0.010-0.001c-0.626 0.282-1.116 0.773-1.389 1.383l-0.007 0.017zM30.784 5.536h-4.005l-1.769 1.928h5.132v15.4h-28.226v-15.4h16.419l1.36-1.928h-18.422c-0.708 0.003-1.28 0.577-1.28 1.285 0 0.001 0 0.002 0 0.003v-0 18.608c0 0.707 0.573 1.28 1.28 1.28v0h29.51c0.707 0 1.28-0.573 1.28-1.28v0-18.608c0-0.001 0-0.002 0-0.003 0-0.708-0.573-1.282-1.28-1.285h-0z"></path>
</svg>
