<!-- Generated by IcoMoon.io -->
<svg version="1.1" xmlns="http://www.w3.org/2000/svg" width="32" height="32" viewBox="0 0 32 32">
<title>icon_clients</title>
<path d="M23.851 17.042c1.632-1.87 3.003-4.027 4.019-6.372l0.062-0.159c0.271-0.629 0.561-1.438 0.807-2.266l0.044-0.171c0.090-0.336 0.187-0.747 0.276-1.198 0.020-0.098 0.034-0.189 0.053-0.287 0.021-0.123 0.044-0.246 0.063-0.377 0.144-0.822 0.226-1.769 0.226-2.735 0-0.253-0.006-0.505-0.017-0.755l0.001 0.036c-0.036-0.335-0.056-0.724-0.056-1.118 0-0.109 0.002-0.218 0.005-0.326l-0 0.016c0.025-0.025 0.048-0.052 0.068-0.080l0.001-0.002c0.117-0.092 0.191-0.234 0.191-0.393 0-0.041-0.005-0.081-0.014-0.119l0.001 0.003s-0.021-0.016-0.048-0.033c-0.004-0.035-0.007-0.077-0.007-0.118 0-0.113 0.018-0.222 0.052-0.324l-0.002 0.007c0.051-0.222-0.103-0.336-0.345-0.263-0.14 0.057-0.303 0.090-0.473 0.090-0.007 0-0.013-0-0.020-0h0.001l-0.057-0.041c-0.202 0.006-0.376 0.123-0.461 0.292l-0.001 0.003c-0.017 0.025-0.032 0.046-0.049 0.067l0.001-0.001c-0.026 0.041-0.66 0.107-1.405 0.254-2.103 0.442-3.966 1.215-5.631 2.273l0.069-0.041c-2.826 1.79-5.156 4.11-6.905 6.837l-0.053 0.089c-0.462 0.644-1.208 1.058-2.051 1.058-0 0-0 0-0 0v0c-0.173-0.011-0.376-0.017-0.58-0.017-4.095 0-7.599 2.535-9.026 6.122l-0.023 0.066c-0.057 0.111-0.091 0.243-0.091 0.383 0 0.472 0.382 0.854 0.854 0.854 0.055 0 0.109-0.005 0.162-0.015l-0.005 0.001c13.39-0.246 14.61 7.918 14.562 11.2-0.012 0.747 0.464 1.116 1.113 0.73 4.866-2.888 4.545-8.336 4.094-10.839-0.020-0.134-0.032-0.289-0.032-0.446 0-0.711 0.236-1.366 0.634-1.892l-0.006 0.008zM22.343 13.358c-0.499 0.529-1.204 0.858-1.986 0.858-0.502 0-0.973-0.136-1.377-0.372l0.013 0.007c-0.813-0.444-1.356-1.294-1.356-2.27 0-0.475 0.129-0.921 0.353-1.303l-0.007 0.012c0.092-0.159 0.195-0.296 0.311-0.42l-0.001 0.001c0.5-0.527 1.206-0.855 1.988-0.855 0.501 0 0.971 0.135 1.375 0.37l-0.013-0.007c0.813 0.447 1.355 1.299 1.355 2.276 0 0.476-0.128 0.922-0.352 1.305l0.007-0.012c-0.097 0.154-0.199 0.289-0.313 0.412l0.002-0.002zM10.565 31.36c2.402-1.419 3.792-4.037 4.445-5.604 0.288-0.689-0.107-1.026-0.747-0.632-2.005 1.35-3.554 3.238-4.457 5.458l-0.029 0.080c-0.288 0.689 0.138 1.083 0.788 0.697zM5.785 31.877c3.667-1.986 5.639-6.17 6.437-8.279 0.264-0.697-0.135-1.034-0.785-0.656-3.851 2.273-5.731 6.195-6.482 8.213-0.261 0.697 0.167 1.083 0.83 0.722zM4.924 27.011c2.402-1.419 3.791-4.029 4.444-5.596 0.289-0.689-0.107-1.026-0.747-0.632-2.004 1.35-3.553 3.238-4.457 5.458l-0.029 0.080c-0.288 0.689 0.141 1.075 0.788 0.689z"></path>
</svg>
