<!-- Generated by IcoMoon.io -->
<svg version="1.1" xmlns="http://www.w3.org/2000/svg" width="32" height="32" viewBox="0 0 32 32">
<title>icon_adv</title>
<path d="M9.468 8.135l-4.384 0.008s-3.466 0.152-3.46 3.512v0.093c-0.732 0.505-1.205 1.339-1.205 2.284 0 0.947 0.476 1.784 1.202 2.283l0.009 0.006c0.005 0.413 0.141 3.832 3.331 3.823 0 0 1.321 0.051 1.207 2.164l0.013 8.354c-0.016 0.071-0.026 0.153-0.026 0.236 0 0.61 0.494 1.104 1.104 1.104 0.019 0 0.039-0.001 0.058-0.001l-0.003 0s3.922-0.564 1.971-4.573c1.468-1.524-0.631-2.408 0.205-4.901 0.528-0.693 0.921-1.519 1.121-2.417l0.008-0.042 0.051-10.669c0.013-0.062 0.020-0.134 0.020-0.208 0-0.589-0.478-1.067-1.067-1.067-0.055 0-0.109 0.004-0.162 0.012l0.006-0.001zM29.558 10.282l-0.017-9.743c0-1.272-1.078 0.143-1.078 0.143-5.086 7.941-15.616 7.318-15.616 7.318-0.046-0.008-0.099-0.013-0.154-0.013-0.501 0-0.907 0.406-0.907 0.907 0 0.062 0.006 0.123 0.018 0.181l-0.001-0.006 0.018 9.204c0.007 0.583 0.481 1.054 1.065 1.054 0.017 0 0.033-0 0.050-0.001l-0.002 0c11.768-0.017 15.79 7.427 15.79 7.427s0.935 1.145 0.867-0.051l-0.017-9.726c1.202-0.651 2.005-1.903 2.005-3.343 0-1.446-0.81-2.703-2.001-3.342l-0.020-0.010zM17.974 8.977s6.923-0.968 10.274-6.173c-0.003 0-1.3 6.080-10.274 6.173zM30.846 14.712c0.022-0.176 0.034-0.379 0.034-0.586 0-1.142-0.38-2.195-1.020-3.039l0.009 0.013s1.794 1.044 0.977 3.613z"></path>
</svg>
