<!-- Generated by IcoMoon.io -->
<svg version="1.1" xmlns="http://www.w3.org/2000/svg" width="32" height="32" viewBox="0 0 32 32">
<title>icon_left-arrow</title>
<path d="M16 32c8.837 0 16-7.163 16-16s-7.163-16-16-16c-8.837 0-16 7.163-16 16v0c0.009 8.833 7.167 15.991 15.999 16h0.001zM16 1.466c8.026 0.002 14.531 6.508 14.531 14.534 0 8.027-6.507 14.534-14.534 14.534s-14.534-6.507-14.534-14.534v0c0.012-8.023 6.514-14.524 14.536-14.534h0.001zM22.471 26.467l-6.264-10.529 6.264-10.199-17.961 10.364z"></path>
</svg>
