<!-- Generated by IcoMoon.io -->
<svg version="1.1" xmlns="http://www.w3.org/2000/svg" width="32" height="32" viewBox="0 0 32 32">
<title>icon_right-arrow</title>
<path d="M16 32c-8.834-0.004-15.994-7.166-15.994-16 0-8.837 7.163-16 16-16s16 7.163 16 16v0c-0.009 8.835-7.171 15.994-16.006 16h-0.001zM16 1.466c-8.026 0.002-14.531 6.508-14.531 14.534 0 8.027 6.507 14.534 14.534 14.534s14.534-6.507 14.534-14.534v0c-0.012-8.023-6.514-14.524-14.536-14.534h-0.001zM9.529 26.467l6.265-10.529-6.265-10.199 17.961 10.364z"></path>
</svg>
