<svg aria-hidden="true" style="position: absolute; width: 0; height: 0; overflow: hidden;" version="1.1" 
  xmlns="http://www.w3.org/2000/svg" 
  xmlns:xlink="http://www.w3.org/1999/xlink">
  <defs>
    <symbol id="icon-icon_plus" viewBox="0 0 32 32">
      <path d="M31 12h-11v-11c0-0.552-0.448-1-1-1h-6c-0.552 0-1 0.448-1 1v11h-11c-0.552 0-1 0.448-1 1v6c0 0.552 0.448 1 1 1h11v11c0 0.552 0.448 1 1 1h6c0.552 0 1-0.448 1-1v-11h11c0.552 0 1-0.448 1-1v-6c0-0.552-0.448-1-1-1z"></path>
    </symbol>
    <symbol id="icon-icon_arrow-down" viewBox="0 0 32 32">
      <path d="M27.414 19.414l-10 10c-0.781 0.781-2.047 0.781-2.828 0l-10-10c-0.781-0.781-0.781-2.047 0-2.828s2.047-0.781 2.828 0l6.586 6.586v-19.172c0-1.105 0.895-2 2-2s2 0.895 2 2v19.172l6.586-6.586c0.39-0.39 0.902-0.586 1.414-0.586s1.024 0.195 1.414 0.586c0.781 0.781 0.781 2.047 0 2.828z"></path>
    </symbol>
    <symbol id="icon-icon_adv" viewBox="0 0 32 32">
      <path d="M9.468 8.135l-4.384 0.008s-3.466 0.152-3.46 3.512v0.093c-0.732 0.505-1.205 1.339-1.205 2.284 0 0.947 0.476 1.784 1.202 2.283l0.009 0.006c0.005 0.413 0.141 3.832 3.331 3.823 0 0 1.321 0.051 1.207 2.164l0.013 8.354c-0.016 0.071-0.026 0.153-0.026 0.236 0 0.61 0.494 1.104 1.104 1.104 0.019 0 0.039-0.001 0.058-0.001l-0.003 0s3.922-0.564 1.971-4.573c1.468-1.524-0.631-2.408 0.205-4.901 0.528-0.693 0.921-1.519 1.121-2.417l0.008-0.042 0.051-10.669c0.013-0.062 0.020-0.134 0.020-0.208 0-0.589-0.478-1.067-1.067-1.067-0.055 0-0.109 0.004-0.162 0.012l0.006-0.001zM29.558 10.282l-0.017-9.743c0-1.272-1.078 0.143-1.078 0.143-5.086 7.941-15.616 7.318-15.616 7.318-0.046-0.008-0.099-0.013-0.154-0.013-0.501 0-0.907 0.406-0.907 0.907 0 0.062 0.006 0.123 0.018 0.181l-0.001-0.006 0.018 9.204c0.007 0.583 0.481 1.054 1.065 1.054 0.017 0 0.033-0 0.050-0.001l-0.002 0c11.768-0.017 15.79 7.427 15.79 7.427s0.935 1.145 0.867-0.051l-0.017-9.726c1.202-0.651 2.005-1.903 2.005-3.343 0-1.446-0.81-2.703-2.001-3.342l-0.020-0.010zM17.974 8.977s6.923-0.968 10.274-6.173c-0.003 0-1.3 6.080-10.274 6.173zM30.846 14.712c0.022-0.176 0.034-0.379 0.034-0.586 0-1.142-0.38-2.195-1.020-3.039l0.009 0.013s1.794 1.044 0.977 3.613z"></path>
    </symbol>
    <symbol id="icon-icon_branding" viewBox="0 0 32 32">
      <path d="M20.174 30.352c-0.324-0.243-0.55-0.602-0.614-1.015l-0.001-0.009-0.208-1.328h-6.64l-0.21 1.328c-0.064 0.422-0.289 0.781-0.61 1.021l-0.004 0.003c-0.555 0.408-0.994 0.76-0.555 0.824 0.422 0.056 4.406 0 4.701 0s4.278 0.056 4.701 0c0.434-0.064-0.005-0.416-0.56-0.824zM8.545 19.704c1.775-0.016 1.996-0.44 2.574-2.224 1.067-2.816 5.873 0.736 2.895 1.968s-7.245 0.272-5.47 0.256zM26.746 1.16c-0.862-0.688-2.288-0.352-3.187 0.768l-9.106 12.944c-0.899 1.112-0.894 0.904-0.034 1.592s0.654 0.744 1.553-0.368l10.706-11.656c0.899-1.112 0.933-2.584 0.069-3.28zM24.404 2.712c-0.177-0.181-0.365-0.349-0.564-0.503l-0.012-0.009c0.378-0.549 1.004-0.904 1.712-0.904 0.092 0 0.182 0.006 0.271 0.018l-0.010-0.001c-0.626 0.282-1.116 0.773-1.389 1.383l-0.007 0.017zM30.784 5.536h-4.005l-1.769 1.928h5.132v15.4h-28.226v-15.4h16.419l1.36-1.928h-18.422c-0.708 0.003-1.28 0.577-1.28 1.285 0 0.001 0 0.002 0 0.003v-0 18.608c0 0.707 0.573 1.28 1.28 1.28v0h29.51c0.707 0 1.28-0.573 1.28-1.28v0-18.608c0-0.001 0-0.002 0-0.003 0-0.708-0.573-1.282-1.28-1.285h-0z"></path>
    </symbol>
    <symbol id="icon-icon_clients" viewBox="0 0 32 32">
      <path d="M23.851 17.042c1.632-1.87 3.003-4.027 4.019-6.372l0.062-0.159c0.271-0.629 0.561-1.438 0.807-2.266l0.044-0.171c0.090-0.336 0.187-0.747 0.276-1.198 0.020-0.098 0.034-0.189 0.053-0.287 0.021-0.123 0.044-0.246 0.063-0.377 0.144-0.822 0.226-1.769 0.226-2.735 0-0.253-0.006-0.505-0.017-0.755l0.001 0.036c-0.036-0.335-0.056-0.724-0.056-1.118 0-0.109 0.002-0.218 0.005-0.326l-0 0.016c0.025-0.025 0.048-0.052 0.068-0.080l0.001-0.002c0.117-0.092 0.191-0.234 0.191-0.393 0-0.041-0.005-0.081-0.014-0.119l0.001 0.003s-0.021-0.016-0.048-0.033c-0.004-0.035-0.007-0.077-0.007-0.118 0-0.113 0.018-0.222 0.052-0.324l-0.002 0.007c0.051-0.222-0.103-0.336-0.345-0.263-0.14 0.057-0.303 0.090-0.473 0.090-0.007 0-0.013-0-0.020-0h0.001l-0.057-0.041c-0.202 0.006-0.376 0.123-0.461 0.292l-0.001 0.003c-0.017 0.025-0.032 0.046-0.049 0.067l0.001-0.001c-0.026 0.041-0.66 0.107-1.405 0.254-2.103 0.442-3.966 1.215-5.631 2.273l0.069-0.041c-2.826 1.79-5.156 4.11-6.905 6.837l-0.053 0.089c-0.462 0.644-1.208 1.058-2.051 1.058-0 0-0 0-0 0v0c-0.173-0.011-0.376-0.017-0.58-0.017-4.095 0-7.599 2.535-9.026 6.122l-0.023 0.066c-0.057 0.111-0.091 0.243-0.091 0.383 0 0.472 0.382 0.854 0.854 0.854 0.055 0 0.109-0.005 0.162-0.015l-0.005 0.001c13.39-0.246 14.61 7.918 14.562 11.2-0.012 0.747 0.464 1.116 1.113 0.73 4.866-2.888 4.545-8.336 4.094-10.839-0.020-0.134-0.032-0.289-0.032-0.446 0-0.711 0.236-1.366 0.634-1.892l-0.006 0.008zM22.343 13.358c-0.499 0.529-1.204 0.858-1.986 0.858-0.502 0-0.973-0.136-1.377-0.372l0.013 0.007c-0.813-0.444-1.356-1.294-1.356-2.27 0-0.475 0.129-0.921 0.353-1.303l-0.007 0.012c0.092-0.159 0.195-0.296 0.311-0.42l-0.001 0.001c0.5-0.527 1.206-0.855 1.988-0.855 0.501 0 0.971 0.135 1.375 0.37l-0.013-0.007c0.813 0.447 1.355 1.299 1.355 2.276 0 0.476-0.128 0.922-0.352 1.305l0.007-0.012c-0.097 0.154-0.199 0.289-0.313 0.412l0.002-0.002zM10.565 31.36c2.402-1.419 3.792-4.037 4.445-5.604 0.288-0.689-0.107-1.026-0.747-0.632-2.005 1.35-3.554 3.238-4.457 5.458l-0.029 0.080c-0.288 0.689 0.138 1.083 0.788 0.697zM5.785 31.877c3.667-1.986 5.639-6.17 6.437-8.279 0.264-0.697-0.135-1.034-0.785-0.656-3.851 2.273-5.731 6.195-6.482 8.213-0.261 0.697 0.167 1.083 0.83 0.722zM4.924 27.011c2.402-1.419 3.791-4.029 4.444-5.596 0.289-0.689-0.107-1.026-0.747-0.632-2.004 1.35-3.553 3.238-4.457 5.458l-0.029 0.080c-0.288 0.689 0.141 1.075 0.788 0.689z"></path>
    </symbol>
    <symbol id="icon-icon_fb" viewBox="0 0 32 32">
      <path d="M16 0c-0.001 0-0.003 0-0.004 0-8.839 0-16.004 7.165-16.004 16.004s7.165 16.004 16.004 16.004c8.837 0 16.002-7.163 16.004-16v-0c0-0.001 0-0.003 0-0.004 0-8.837-7.163-16.002-16-16.004h-0zM20.136 16l-2.622 0.009v9.6h-3.597v-9.6h-2.405v-3.312h2.4v-1.955c0-2.698 0.732-4.342 3.909-4.342h2.648v3.312h-1.656c-1.238 0-1.297 0.467-1.297 1.323v1.661h2.976z"></path>
    </symbol>
    <symbol id="icon-icon_head" viewBox="0 0 32 32">
      <path d="M12.241 6.925c1.435 0.005 2.596 1.169 2.596 2.605 0 1.439-1.166 2.605-2.605 2.605s-2.605-1.166-2.605-2.605c0-0.002 0-0.005 0-0.007v0c0.005-1.436 1.171-2.598 2.607-2.598 0.002 0 0.005 0 0.007 0h-0zM17.921 17.562c0.92 0.003 1.665 0.75 1.665 1.67 0 0.923-0.748 1.67-1.67 1.67-0.92 0-1.667-0.744-1.67-1.664v-0c0.001-0.925 0.75-1.674 1.674-1.677h0zM27.11 13.734c2.106-10.278-6.272-14.989-15.565-13.504s-8.947 7.091-9.494 9.766c-1.089 6.707 5.834 14.208 5.834 14.208l-0.396 7.795h11.274l0.863-3.584s0.489 0.819 3.401 1.062 2.56-3.302 2.56-3.302 1.939-0.858 1.939-1.498c-0.219-0.612-0.622-1.114-1.141-1.452l-0.011-0.007c0.145 0.034 0.312 0.053 0.483 0.053 0.444 0 0.857-0.129 1.205-0.353l-0.009 0.005c0.444-0.525-0.545-2.394-0.545-2.394 0.941-0.042 1.785-0.424 2.42-1.026l-0.002 0.002c0.901-0.986-2.817-3.891-2.817-5.773zM11.009 15.142s-0.063-0.691-0.093-1.037c-0.318-0.089-0.587-0.19-0.845-0.309l0.035 0.014c-0.307 0.269-0.92 0.781-0.92 0.781s-0.105 0.064-0.157 0.090-1.024-0.090-1.024-0.090l-1.679-1.984v-1.178s0.64-0.538 0.969-0.819c-0.064-0.236-0.11-0.511-0.127-0.794l-0.001-0.012-1.268-0.576-0.339-0.986 0.040-0.166 1.084-2.355 1.152-0.307 1.092 0.499c0.208-0.164 0.442-0.325 0.687-0.47l0.030-0.017c-0.037-0.435-0.108-1.306-0.108-1.306l0.838-0.845 2.589-0.205 0.838 0.832s0.052 0.666 0.081 0.998c0.383 0.114 0.703 0.236 1.012 0.378l-0.047-0.019c0.279-0.23 0.841-0.717 0.841-0.717h1.187l1.692 1.971v1.178l-1.030 0.883c0.046 0.213 0.078 0.463 0.090 0.719l0 0.011c0.433 0.256 1.299 0.755 1.299 0.755l0.301 1.139-1.299 2.24-1.152 0.307-1.011-0.576c-0.189 0.141-0.393 0.269-0.604 0.397 0.040 0.448 0.128 1.344 0.128 1.344l-0.838 0.832-2.586 0.23zM21.558 21.747l-0.735 0.192s-0.431-0.243-0.649-0.371c-0.112 0.092-0.238 0.177-0.371 0.25l-0.013 0.006 0.078 0.858-0.536 0.538-1.664 0.154-0.538-0.538s-0.041-0.448-0.061-0.666c-0.2-0.058-0.37-0.123-0.533-0.201l0.021 0.009c-0.198 0.179-0.591 0.512-0.591 0.512-0.038 0.014-0.071 0.032-0.101 0.052l0.002-0.001c-0.033 0.013-0.66-0.051-0.66-0.051l-1.076-1.28v-0.755s0.413-0.346 0.621-0.525c-0.042-0.153-0.072-0.332-0.084-0.516l-0-0.009c-0.271-0.115-0.814-0.371-0.814-0.371l-0.218-0.627 0.024-0.102 0.695-1.51 0.737-0.192s0.466 0.205 0.7 0.32c0.133-0.106 0.283-0.212 0.439-0.308l0.020-0.012c-0.023-0.282-0.068-0.845-0.068-0.845l0.536-0.538 1.664-0.128 0.538 0.538s0.033 0.422 0.051 0.64c0.245 0.072 0.45 0.151 0.648 0.242l-0.029-0.012 0.539-0.461h0.768l1.085 1.267v0.755s-0.44 0.371-0.659 0.563c0.030 0.14 0.050 0.302 0.056 0.469l0 0.005c0.278 0.154 0.835 0.474 0.835 0.474l0.192 0.742z"></path>
    </symbol>
    <symbol id="icon-icon_in" viewBox="0 0 32 32">
      <path d="M16 0c-0.001 0-0.003 0-0.004 0-8.839 0-16.004 7.165-16.004 16.004s7.165 16.004 16.004 16.004c8.837 0 16.002-7.163 16.004-16v-0c0-0.001 0-0.003 0-0.004 0-8.837-7.163-16.002-16-16.004h-0zM12.001 23.758h-3.999v-14.002h3.999v14.002zM10.125 8.891c-0 0-0.001 0-0.001 0-1.037 0-1.877-0.84-1.877-1.877s0.84-1.877 1.877-1.877c1.037 0 1.877 0.84 1.877 1.877v0c0 0.001 0 0.002 0 0.003 0 1.035-0.839 1.874-1.874 1.874-0.003 0-0.005 0-0.008-0h0zM25.998 23.758h-3.999v-8.657c0-1.012-0.289-1.73-1.535-1.73-0.047-0.003-0.102-0.005-0.157-0.005-1.089 0-2.008 0.725-2.303 1.718l-0.004 0.017v8.657h-3.999v-14.002h3.999v1.332c1.102-0.828 2.492-1.327 3.998-1.332h0.001c1.297 0 3.999 0.778 3.999 5.466v8.536z"></path>
    </symbol>
    <symbol id="icon-icon_lamp" viewBox="0 0 32 32">
      <path d="M24.106 11.994c0 4.006-4.052 7.949-4.052 12.006h-8.108c0-3.942-4.052-8-4.052-12.006 0.081-4.415 3.679-7.963 8.106-7.963s8.025 3.548 8.106 7.956l0 0.008zM19.040 27.994h-6.080c-0.555 0-1.005 0.45-1.005 1.005s0.45 1.005 1.005 1.005h0.186c0.438 1.175 1.55 1.997 2.854 1.997s2.416-0.822 2.848-1.976l0.007-0.021h0.186c0.555 0 1.005-0.45 1.005-1.005s-0.45-1.005-1.005-1.005v0zM19.040 24.998h-6.080c-0.551 0-0.998 0.447-0.998 0.998s0.447 0.998 0.998 0.998h6.080c0.551 0 0.998-0.447 0.998-0.998s-0.447-0.998-0.998-0.998c0 0 0 0 0 0v0zM4.96 6.861l1.819 1.037c0.311-0.661 0.652-1.228 1.044-1.756l-0.020 0.028-1.825-1.037zM17.011 2.099v-2.099h-2.028v2.099c0.305-0.065 0.656-0.103 1.015-0.103s0.71 0.037 1.048 0.108l-0.033-0.006zM11.845 2.906l-1.050-1.805-1.757 1.011 1.056 1.792c0.506-0.366 1.082-0.699 1.691-0.973l0.063-0.025zM27.035 6.861l-1.012-1.728-1.825 1.037c0.371 0.5 0.712 1.067 0.997 1.666l0.027 0.062zM22.954 2.112l-1.754-1.011-1.050 1.805c0.67 0.299 1.244 0.633 1.779 1.018l-0.029-0.020zM5.864 11.994c0.019-0.372 0.056-0.715 0.111-1.053l-0.007 0.054h-2.127v2.010h2.134c-0.052-0.291-0.090-0.639-0.107-0.992l-0.001-0.019zM26.028 10.995c0.048 0.283 0.085 0.627 0.103 0.975l0.001 0.023c-0.017 0.373-0.056 0.721-0.115 1.061l0.007-0.050h2.136v-2.010h-2.13zM24.364 17.92l1.664 0.947 1.012-1.741-1.841-1.037c-0.257 0.614-0.535 1.229-0.833 1.83zM4.96 17.126l1.012 1.741 1.645-0.934c-0.297-0.614-0.573-1.216-0.824-1.843z"></path>
    </symbol>
    <symbol id="icon-icon_left-arrow" viewBox="0 0 32 32">
      <path d="M16 32c8.837 0 16-7.163 16-16s-7.163-16-16-16c-8.837 0-16 7.163-16 16v0c0.009 8.833 7.167 15.991 15.999 16h0.001zM16 1.466c8.026 0.002 14.531 6.508 14.531 14.534 0 8.027-6.507 14.534-14.534 14.534s-14.534-6.507-14.534-14.534v0c0.012-8.023 6.514-14.524 14.536-14.534h0.001zM22.471 26.467l-6.264-10.529 6.264-10.199-17.961 10.364z"></path>
    </symbol>
    <symbol id="icon-icon_like" viewBox="0 0 32 32">
      <path d="M28.753 9.878h-7.179c-0.312 0-0.398-0.195-0.223-0.459 0.654-1.095 1.041-2.416 1.041-3.826 0-0.457-0.041-0.905-0.118-1.339l0.007 0.046c-0.185-2.101-0.633-2.908-1.252-2.908-1.016 0-2.489 2.198-3.982 4.369-1.916 2.39-4.249 4.356-6.903 5.812l-0.119 0.060c-0.279 0.154-0.618 0.313-0.968 0.451l-0.063 0.022-3.787 1.405c-0.305 0.137-0.517 0.431-0.531 0.777l-0 0.002v11.506c0.016 0.365 0.206 0.683 0.489 0.874l0.004 0.003 1.631 0.946c0.307 0.156 0.665 0.264 1.044 0.305l0.014 0.001c1.445 0.157 2.744 0.681 3.832 1.477l-0.022-0.016c0.266 0.181 0.666 0.487 0.927 0.668 0.499 0.347 1.117 0.555 1.783 0.557h11.374c1.716-0.023 3.155-1.189 3.589-2.77l0.006-0.026c0.065-0.32 0.107-0.835 0.167-1.155l2.401-12.828c0.049-0.233 0.077-0.5 0.077-0.774 0-0.134-0.007-0.267-0.020-0.397l0.001 0.016c-0.252-1.578-1.592-2.773-3.216-2.796l-0.003-0zM3.014 12.397h-2.072c-0.522 0.008-0.942 0.433-0.942 0.956 0 0.006 0 0.013 0 0.019v-0.001 13.44c-0 0.003-0 0.006-0 0.010 0 0.525 0.419 0.951 0.941 0.964l0.001 0h2.072c0.523-0.012 0.942-0.439 0.942-0.964 0-0.003-0-0.007-0-0.011v0.001-13.44c0-0.005 0-0.012 0-0.018 0-0.523-0.42-0.948-0.941-0.956h-0.001z"></path>
    </symbol>
    <symbol id="icon-icon_marketing" viewBox="0 0 32 32">
      <path d="M28.636 0h-25.263c-1.858 0.002-3.364 1.507-3.369 3.364v25.272c0.010 1.856 1.513 3.357 3.368 3.364h25.263c1.854-0.009 3.355-1.51 3.364-3.363v-25.272c-0.005-1.856-1.508-3.359-3.364-3.364h-0zM3.654 4.558h24.691v16.848h-24.691v-16.848zM29.686 27.468h-17.24c-0.309 1.279-1.444 2.215-2.797 2.215s-2.488-0.936-2.793-2.195l-0.004-0.020h-4.537v-1.332h4.534c0.306-1.284 1.444-2.224 2.801-2.224s2.495 0.94 2.797 2.204l0.004 0.020h17.238v1.332zM18.946 6.997h3.443v11.555h-3.443v-11.555zM9.444 11.442h3.442v7.109h-3.445v-7.109zM14.195 9.557h3.448v8.995h-3.446v-8.995z"></path>
    </symbol>
    <symbol id="icon-icon_monitor" viewBox="0 0 32 32">
      <path d="M30.066 1.391h-28.127c-1.078 0.012-1.948 0.889-1.948 1.969 0 0.002 0 0.005 0 0.007v-0 20.522c0 0.003-0 0.006-0 0.009 0 1.082 0.868 1.962 1.946 1.981l0.002 0h28.127c1.080-0.019 1.948-0.898 1.948-1.981 0-0.003 0-0.006-0-0.009v0-20.522c0-0.002 0-0.005 0-0.007 0-1.080-0.87-1.957-1.947-1.969h-0.001zM29.575 22.442h-27.147v-18.268h27.147v18.268zM23.345 30.609h-14.632l3.68-3.798h7.271zM14.496 9.878c0.005-0 0.012-0 0.018-0 0.73 0 1.322 0.592 1.322 1.322s-0.592 1.322-1.322 1.322c-0.73 0-1.322-0.592-1.322-1.322v0c-0-0.004-0-0.008-0-0.013 0-0.721 0.583-1.306 1.303-1.309h0zM19.757 14.15c0.005-0 0.011-0 0.017-0 0.73 0 1.322 0.592 1.322 1.322s-0.592 1.322-1.322 1.322c-0.73 0-1.322-0.592-1.322-1.322v0c0-0.001 0-0.002 0-0.003 0-0.724 0.583-1.311 1.304-1.319h0.001zM24.959 9.53c0.007-0 0.016-0 0.025-0 0.734 0 1.329 0.595 1.329 1.329s-0.595 1.329-1.329 1.329c-0.731 0-1.325-0.591-1.329-1.321v-0c-0-0.005-0-0.010-0-0.015 0-0.723 0.582-1.311 1.303-1.32h0.001zM6.574 16.125c0.007-0 0.015-0 0.024-0 0.734 0 1.329 0.595 1.329 1.329s-0.595 1.329-1.329 1.329c-0.731 0-1.325-0.591-1.329-1.321v-0c-0-0.005-0-0.010-0-0.015 0-0.724 0.582-1.312 1.304-1.32h0.001zM19.684 15.082c-0.534-0.459-5.133-4.424-5.133-4.424l-8.384 6.609 0.434 0.807s7.352-6.052 7.841-6.317c0.43 0.362 5.258 4.536 5.258 4.536l5.558-5.092-0.601-0.682s-4.454 4.090-4.974 4.563z"></path>
    </symbol>
    <symbol id="icon-icon_quotes" viewBox="0 0 32 32">
      <path d="M6.856 14.748c0-4.094 0-4.772 3.43-4.772v-7.614c-8 0-10.292 5.346-10.292 14.776v12.499h14.871v-12.499h-8.006v-2.391zM24.007 17.139v-2.391c0-4.094 0-4.772 3.429-4.772v-7.614c-8 0-10.289 5.346-10.289 14.776v12.499h14.858v-12.499h-8z"></path>
    </symbol>
    <symbol id="icon-icon_raketa" viewBox="0 0 32 32">
      <path d="M23.795 17.044c1.623-1.867 2.986-4.019 3.997-6.358l0.061-0.16c0.269-0.63 0.556-1.442 0.799-2.272l0.043-0.171c0.091-0.337 0.187-0.741 0.275-1.196 0.020-0.101 0.035-0.185 0.054-0.286 0.020-0.135 0.042-0.253 0.062-0.387 0.144-0.824 0.226-1.772 0.226-2.74 0-0.251-0.006-0.5-0.016-0.748l0.001 0.035c-0.036-0.335-0.056-0.724-0.056-1.117 0-0.105 0.001-0.209 0.004-0.313l-0 0.015c0.024-0.034 0.047-0.051 0.069-0.084 0.116-0.093 0.189-0.235 0.189-0.394 0-0.039-0.005-0.078-0.013-0.114l0.001 0.003c-0.018-0.015-0.033-0.031-0.047-0.050l-0.001-0.001c-0.005-0.036-0.008-0.077-0.008-0.119 0-0.108 0.018-0.212 0.052-0.309l-0.002 0.007c0.052-0.219-0.103-0.337-0.337-0.269-0.146 0.062-0.315 0.099-0.493 0.101h-0.001l-0.057-0.051c-0.2 0.016-0.369 0.133-0.458 0.3l-0.002 0.003c-0.017 0.017-0.034 0.051-0.049 0.067s-0.657 0.101-1.396 0.253c-2.093 0.44-3.946 1.21-5.602 2.264l0.068-0.041c-2.813 1.791-5.131 4.109-6.869 6.833l-0.053 0.089c-0.462 0.638-1.201 1.051-2.036 1.061h-0.002c-0.171-0.011-0.371-0.017-0.572-0.017-4.082 0-7.573 2.534-8.984 6.116l-0.023 0.065c-0.059 0.112-0.094 0.246-0.094 0.387 0 0.465 0.377 0.842 0.842 0.842 0.059 0 0.117-0.006 0.172-0.018l-0.005 0.001c13.32-0.253 14.535 7.916 14.484 11.2-0.012 0.741 0.461 1.112 1.108 0.724 4.84-2.88 4.52-8.32 4.072-10.829-0.020-0.132-0.031-0.285-0.031-0.44 0-0.71 0.235-1.365 0.631-1.892l-0.006 0.008zM22.296 13.373c-0.496 0.525-1.197 0.852-1.975 0.852-0.5 0-0.968-0.135-1.37-0.37l0.013 0.007c-0.813-0.449-1.354-1.301-1.354-2.279 0-0.475 0.128-0.92 0.351-1.303l-0.007 0.012c0.097-0.159 0.199-0.296 0.312-0.424l-0.003 0.003c0.496-0.525 1.197-0.852 1.974-0.852 0.5 0 0.968 0.135 1.37 0.371l-0.013-0.007c0.813 0.448 1.355 1.3 1.355 2.279 0 0.475-0.128 0.921-0.351 1.304l0.007-0.012c-0.1 0.159-0.202 0.296-0.314 0.425l0.004-0.004zM10.579 31.343c1.996-1.361 3.529-3.271 4.395-5.511l0.027-0.080c0.286-0.691-0.106-1.027-0.743-0.64-1.997 1.353-3.538 3.242-4.434 5.461l-0.029 0.080c-0.286 0.691 0.141 1.078 0.783 0.691zM5.824 31.865c2.972-1.953 5.216-4.802 6.367-8.158l0.033-0.112c0.264-0.707-0.133-1.044-0.78-0.657-2.971 1.941-5.226 4.762-6.415 8.090l-0.035 0.112c-0.256 0.691 0.17 1.078 0.83 0.724zM4.967 26.998c1.996-1.361 3.528-3.271 4.394-5.511l0.027-0.080c0.286-0.691-0.106-1.027-0.743-0.623-1.995 1.348-3.536 3.231-4.433 5.444l-0.029 0.080c-0.288 0.691 0.136 1.078 0.783 0.691z"></path>
    </symbol>
    <symbol id="icon-icon_right-arrow" viewBox="0 0 32 32">
      <path d="M16 32c-8.834-0.004-15.994-7.166-15.994-16 0-8.837 7.163-16 16-16s16 7.163 16 16v0c-0.009 8.835-7.171 15.994-16.006 16h-0.001zM16 1.466c-8.026 0.002-14.531 6.508-14.531 14.534 0 8.027 6.507 14.534 14.534 14.534s14.534-6.507 14.534-14.534v0c-0.012-8.023-6.514-14.524-14.536-14.534h-0.001zM9.529 26.467l6.265-10.529-6.265-10.199 17.961 10.364z"></path>
    </symbol>
    <symbol id="icon-icon_tw" viewBox="0 0 32 32">
      <path d="M16 0c-8.837 0-16 7.163-16 16s7.163 16 16 16c8.837 0 16-7.163 16-16v0c0-8.837-7.163-16-16-16v0zM22.506 13.111c0.007 0.13 0.009 0.268 0.009 0.406-0.005 4.949-4.018 8.96-8.969 8.96-1.792 0-3.461-0.526-4.862-1.431l0.035 0.021c0.224 0.026 0.485 0.042 0.75 0.043h0.002c0.004 0 0.009 0 0.014 0 1.478 0 2.838-0.508 3.914-1.359l-0.013 0.010c-1.372-0.027-2.527-0.927-2.934-2.166l-0.006-0.022c0.176 0.033 0.379 0.052 0.586 0.052 0.002 0 0.004 0 0.006 0h-0c0.008 0 0.016 0 0.025 0 0.287 0 0.564-0.041 0.826-0.118l-0.021 0.005c-1.452-0.298-2.528-1.565-2.528-3.083 0-0.002 0-0.003 0-0.005v0c0-0.009 0-0.026 0-0.035 0.412 0.23 0.901 0.372 1.422 0.389l0.005 0c-0.85-0.573-1.402-1.533-1.402-2.621 0-0.583 0.158-1.129 0.434-1.597l-0.008 0.015c1.562 1.907 3.871 3.152 6.474 3.286l0.022 0.001c-0.052-0.21-0.081-0.452-0.081-0.701 0-0.006 0-0.012 0-0.018v0.001c0.004-1.738 1.414-3.146 3.152-3.146 0.904 0 1.72 0.381 2.295 0.991l0.001 0.002c0.755-0.152 1.425-0.416 2.030-0.777l-0.029 0.016c-0.244 0.741-0.733 1.345-1.37 1.73l-0.014 0.008c0.672-0.081 1.283-0.255 1.85-0.509l-0.040 0.016c-0.433 0.64-0.955 1.181-1.556 1.622l-0.018 0.013z"></path>
    </symbol>
  </defs>
</svg>
