<svg aria-hidden="true" style="position:absolute;width:0;height:0" xmlns="http://www.w3.org/2000/svg" overflow="hidden"><defs><symbol id="icon-icon_plus" viewBox="0 0 32 32"><path d="M31 12H20V1a1 1 0 00-1-1h-6a1 1 0 00-1 1v11H1a1 1 0 00-1 1v6a1 1 0 001 1h11v11a1 1 0 001 1h6a1 1 0 001-1V20h11a1 1 0 001-1v-6a1 1 0 00-1-1z"/></symbol><symbol id="icon-icon_arrow-down" viewBox="0 0 32 32"><path d="M27.414 19.414l-10 10a2 2 0 01-2.828 0l-10-10a2 2 0 112.828-2.828L14 23.172V4a2 2 0 114 0v19.172l6.586-6.586c.39-.39.902-.586 1.414-.586s1.024.195 1.414.586a2 2 0 010 2.828z"/></symbol><symbol id="icon-icon_adv" viewBox="0 0 32 32"><path d="M9.468 8.135l-4.384.008s-3.466.152-3.46 3.512v.093a2.766 2.766 0 00-.003 4.567l.009.006c.005.413.141 3.832 3.331 3.823 0 0 1.321.051 1.207 2.164l.013 8.354a1.104 1.104 0 001.078 1.34l.058-.001h-.003s3.922-.564 1.971-4.573c1.468-1.524-.631-2.408.205-4.901a6.236 6.236 0 001.121-2.417l.008-.042.051-10.669a1.067 1.067 0 00-1.209-1.263l.006-.001zm20.09 2.147L29.541.539c0-1.272-1.078.143-1.078.143C23.377 8.623 12.847 8 12.847 8a.907.907 0 00-1.043 1.075l-.001-.006.018 9.204a1.066 1.066 0 001.065 1.054l.05-.001h-.002c11.768-.017 15.79 7.427 15.79 7.427s.935 1.145.867-.051l-.017-9.726a3.79 3.79 0 00.004-6.685l-.02-.01zM17.974 8.977s6.923-.968 10.274-6.173c-.003 0-1.3 6.08-10.274 6.173zm12.872 5.735a5.012 5.012 0 00-.986-3.625l.009.013s1.794 1.044.977 3.613z"/></symbol><symbol id="icon-icon_branding" viewBox="0 0 32 32"><path d="M20.174 30.352a1.57 1.57 0 01-.614-1.015l-.001-.009L19.351 28h-6.64l-.21 1.328a1.56 1.56 0 01-.61 1.021l-.004.003c-.555.408-.994.76-.555.824.422.056 4.406 0 4.701 0s4.278.056 4.701 0c.434-.064-.005-.416-.56-.824zM8.545 19.704c1.775-.016 1.996-.44 2.574-2.224 1.067-2.816 5.873.736 2.895 1.968s-7.245.272-5.47.256zM26.746 1.16c-.862-.688-2.288-.352-3.187.768l-9.106 12.944c-.899 1.112-.894.904-.034 1.592s.654.744 1.553-.368L26.678 4.44c.899-1.112.933-2.584.069-3.28zm-2.342 1.552a5.478 5.478 0 00-.564-.503l-.012-.009a2.073 2.073 0 011.983-.886l-.01-.001a2.75 2.75 0 00-1.389 1.383l-.007.017zm6.38 2.824h-4.005L25.01 7.464h5.132v15.4H1.916v-15.4h16.419l1.36-1.928H1.273a1.285 1.285 0 00-1.28 1.285v18.611c0 .707.573 1.28 1.28 1.28h29.51a1.28 1.28 0 001.28-1.28V6.821c0-.708-.573-1.282-1.28-1.285z"/></symbol><symbol id="icon-icon_clients" viewBox="0 0 32 32"><path d="M23.851 17.042a24.573 24.573 0 004.019-6.372l.062-.159c.271-.629.561-1.438.807-2.266l.044-.171c.09-.336.187-.747.276-1.198.02-.098.034-.189.053-.287.021-.123.044-.246.063-.377.144-.822.226-1.769.226-2.735 0-.253-.006-.505-.017-.755l.001.036a10.727 10.727 0 01-.051-1.444v.016a.64.64 0 00.068-.08l.001-.002a.498.498 0 00.177-.512l.001.003s-.021-.016-.048-.033a1.023 1.023 0 01.045-.442l-.002.007c.051-.222-.103-.336-.345-.263-.14.057-.303.09-.473.09h-.02.001l-.057-.041a.533.533 0 00-.461.292l-.001.003a.972.972 0 01-.049.067l.001-.001c-.026.041-.66.107-1.405.254a16.85 16.85 0 00-5.631 2.273l.069-.041A22.375 22.375 0 0014.3 9.741l-.053.089a2.516 2.516 0 01-2.051 1.058 9.714 9.714 0 00-9.606 6.105l-.023.066a.854.854 0 00.925 1.222l-.005.001c13.39-.246 14.61 7.918 14.562 11.2-.012.747.464 1.116 1.113.73 4.866-2.888 4.545-8.336 4.094-10.839a3.124 3.124 0 01.602-2.338l-.006.008zm-1.508-3.684a2.72 2.72 0 01-1.986.858c-.502 0-.973-.136-1.377-.372l.013.007a2.582 2.582 0 01-1.003-3.573l-.007.012c.092-.159.195-.296.311-.42l-.001.001a2.732 2.732 0 013.363-.485l-.013-.007a2.593 2.593 0 011.003 3.581l.007-.012a2.769 2.769 0 01-.313.412l.002-.002zM10.565 31.36c2.402-1.419 3.792-4.037 4.445-5.604.288-.689-.107-1.026-.747-.632a12.053 12.053 0 00-4.457 5.458l-.029.08c-.288.689.138 1.083.788.697zm-4.78.517c3.667-1.986 5.639-6.17 6.437-8.279.264-.697-.135-1.034-.785-.656-3.851 2.273-5.731 6.195-6.482 8.213-.261.697.167 1.083.83.722zm-.861-4.866c2.402-1.419 3.791-4.029 4.444-5.596.289-.689-.107-1.026-.747-.632a12.066 12.066 0 00-4.457 5.458l-.029.08c-.288.689.141 1.075.788.689z"/></symbol><symbol id="icon-icon_fb" viewBox="0 0 32 32"><path d="M16 0h-.004C7.157 0-.008 7.165-.008 16.004s7.165 16.004 16.004 16.004c8.837 0 16.002-7.163 16.004-16v-.004C32 7.167 24.837.002 16 0zm4.136 16l-2.622.009v9.6h-3.597v-9.6h-2.405v-3.312h2.4v-1.955c0-2.698.732-4.342 3.909-4.342h2.648v3.312h-1.656c-1.238 0-1.297.467-1.297 1.323v1.661h2.976z"/></symbol><symbol id="icon-icon_head" viewBox="0 0 32 32"><path d="M12.241 6.925A2.605 2.605 0 119.627 9.53v-.007a2.607 2.607 0 012.607-2.598h.007zm5.68 10.637a1.67 1.67 0 11-1.675 1.676 1.68 1.68 0 011.674-1.677zm9.189-3.828C29.216 3.456 20.838-1.255 11.545.23S2.598 7.321 2.051 9.996C.962 16.703 7.885 24.204 7.885 24.204l-.396 7.795h11.274l.863-3.584s.489.819 3.401 1.062 2.56-3.302 2.56-3.302 1.939-.858 1.939-1.498a2.881 2.881 0 00-1.141-1.452l-.011-.007a2.217 2.217 0 001.688-.3l-.009.005c.444-.525-.545-2.394-.545-2.394a3.745 3.745 0 002.42-1.026l-.002.002c.901-.986-2.817-3.891-2.817-5.773zm-16.101 1.408s-.063-.691-.093-1.037a5.533 5.533 0 01-.845-.309l.035.014c-.307.269-.92.781-.92.781s-.105.064-.157.09-1.024-.09-1.024-.09l-1.679-1.984v-1.178s.64-.538.969-.819a4.008 4.008 0 01-.127-.794l-.001-.012-1.268-.576-.339-.986.04-.166 1.084-2.355 1.152-.307 1.092.499a6.32 6.32 0 01.687-.47l.03-.017c-.037-.435-.108-1.306-.108-1.306l.838-.845 2.589-.205.838.832s.052.666.081.998a7.46 7.46 0 011.012.378l-.047-.019c.279-.23.841-.717.841-.717h1.187l1.692 1.971v1.178l-1.03.883c.046.213.078.463.09.719v.011c.433.256 1.299.755 1.299.755l.301 1.139-1.299 2.24-1.152.307-1.011-.576a7.592 7.592 0 01-.604.397c.04.448.128 1.344.128 1.344l-.838.832-2.586.23zm10.549 6.605l-.735.192s-.431-.243-.649-.371a2.432 2.432 0 01-.371.25l-.013.006.078.858-.536.538-1.664.154-.538-.538-.061-.666c-.2-.058-.37-.123-.533-.201l.021.009c-.198.179-.591.512-.591.512a.48.48 0 00-.101.052l.002-.001c-.033.013-.66-.051-.66-.051l-1.076-1.28v-.755s.413-.346.621-.525a2.637 2.637 0 01-.084-.516v-.009a32.334 32.334 0 01-.814-.371l-.218-.627.024-.102.695-1.51.737-.192s.466.205.7.32c.133-.106.283-.212.439-.308l.02-.012-.068-.845.536-.538 1.664-.128.538.538.051.64c.245.072.45.151.648.242l-.029-.012.539-.461h.768l1.085 1.267v.755s-.44.371-.659.563c.03.14.05.302.056.469v.005c.278.154.835.474.835.474l.192.742z"/></symbol><symbol id="icon-icon_in" viewBox="0 0 32 32"><path d="M16 0h-.004C7.157 0-.008 7.165-.008 16.004s7.165 16.004 16.004 16.004c8.837 0 16.002-7.163 16.004-16v-.004C32 7.167 24.837.002 16 0zm-3.999 23.758H8.002V9.756h3.999v14.002zM10.125 8.891h-.001a1.877 1.877 0 111.877-1.877v.003a1.874 1.874 0 01-1.874 1.874h-.008zm15.873 14.867h-3.999v-8.657c0-1.012-.289-1.73-1.535-1.73a2.404 2.404 0 00-2.46 1.713l-.004.017v8.657h-3.999V9.756H18v1.332a6.683 6.683 0 013.998-1.332h.001c1.297 0 3.999.778 3.999 5.466v8.536z"/></symbol><symbol id="icon-icon_lamp" viewBox="0 0 32 32"><path d="M24.106 11.994c0 4.006-4.052 7.949-4.052 12.006h-8.108c0-3.942-4.052-8-4.052-12.006a8.107 8.107 0 0116.212-.007v.008zm-5.066 16h-6.08a1.005 1.005 0 000 2.01h.186c.438 1.175 1.55 1.997 2.854 1.997s2.416-.822 2.848-1.976l.007-.021h.186a1.005 1.005 0 000-2.01zm0-2.996h-6.08a.998.998 0 000 1.996h6.08a.998.998 0 000-1.996zM4.96 6.861l1.819 1.037a10.13 10.13 0 011.044-1.756l-.02.028-1.825-1.037zm12.051-4.762V0h-2.028v2.099a5.097 5.097 0 012.063.005l-.033-.006zm-5.166.807l-1.05-1.805-1.757 1.011 1.056 1.792a9.699 9.699 0 011.691-.973l.063-.025zm15.19 3.955l-1.012-1.728-1.825 1.037c.371.5.712 1.067.997 1.666l.027.062zm-4.081-4.749L21.2 1.101l-1.05 1.805c.67.299 1.244.633 1.779 1.018l-.029-.02zm-17.09 9.882c.019-.372.056-.715.111-1.053l-.007.054H3.841v2.01h2.134a7.999 7.999 0 01-.107-.992l-.001-.019zm20.164-.999c.048.283.085.627.103.975l.001.023a8.384 8.384 0 01-.115 1.061l.007-.05h2.136v-2.01h-2.13zm-1.664 6.925l1.664.947 1.012-1.741-1.841-1.037a31.566 31.566 0 01-.833 1.83zM4.96 17.126l1.012 1.741 1.645-.934a28.73 28.73 0 01-.824-1.843z"/></symbol><symbol id="icon-icon_left-arrow" viewBox="0 0 32 32"><path d="M16 32c8.837 0 16-7.163 16-16S24.837 0 16 0 0 7.163 0 16c.009 8.833 7.167 15.991 15.999 16H16zm0-30.534C24.026 1.468 30.531 7.974 30.531 16c0 8.027-6.507 14.534-14.534 14.534S1.463 24.027 1.463 16C1.475 7.977 7.977 1.476 15.999 1.466H16zm6.471 25.001l-6.264-10.529 6.264-10.199L4.51 16.103z"/></symbol><symbol id="icon-icon_like" viewBox="0 0 32 32"><path d="M28.753 9.878h-7.179c-.312 0-.398-.195-.223-.459a7.472 7.472 0 001.041-3.826c0-.457-.041-.905-.118-1.339l.007.046c-.185-2.101-.633-2.908-1.252-2.908-1.016 0-2.489 2.198-3.982 4.369a23.036 23.036 0 01-6.903 5.812l-.119.06a8.54 8.54 0 01-.968.451l-.063.022-3.787 1.405a.891.891 0 00-.531.777v11.508c.016.365.206.683.489.874l.004.003 1.631.946c.307.156.665.264 1.044.305l.014.001a7.891 7.891 0 013.832 1.477l-.022-.016c.266.181.666.487.927.668a3.138 3.138 0 001.783.557h11.374a3.775 3.775 0 003.589-2.77l.006-.026c.065-.32.107-.835.167-1.155l2.401-12.828a3.824 3.824 0 00.057-1.171l.001.016a3.308 3.308 0 00-3.216-2.796h-.003zM3.014 12.397H.942a.956.956 0 00-.942.956v.019-.001 13.45c0 .525.419.951.941.964h2.073a.964.964 0 00.942-.964v-.011.001-13.458a.956.956 0 00-.941-.956h-.001z"/></symbol><symbol id="icon-icon_marketing" viewBox="0 0 32 32"><path d="M28.636 0H3.373A3.373 3.373 0 00.004 3.364v25.272A3.381 3.381 0 003.372 32h25.263a3.38 3.38 0 003.364-3.363V3.365A3.373 3.373 0 0028.635.001zM3.654 4.558h24.691v16.848H3.654V4.558zm26.032 22.91h-17.24c-.309 1.279-1.444 2.215-2.797 2.215s-2.488-.936-2.793-2.195l-.004-.02H2.315v-1.332h4.534c.306-1.284 1.444-2.224 2.801-2.224s2.495.94 2.797 2.204l.004.02h17.238v1.332zM18.946 6.997h3.443v11.555h-3.443V6.997zm-9.502 4.445h3.442v7.109H9.441v-7.109zm4.751-1.885h3.448v8.995h-3.446V9.557z"/></symbol><symbol id="icon-icon_monitor" viewBox="0 0 32 32"><path d="M30.066 1.391H1.939A1.97 1.97 0 00-.009 3.36v20.538c0 1.082.868 1.962 1.946 1.981h28.129a1.981 1.981 0 001.948-1.981V3.36a1.97 1.97 0 00-1.947-1.969h-.001zm-.491 21.051H2.428V4.174h27.147v18.268zm-6.23 8.167H8.713l3.68-3.798h7.271zM14.496 9.878h.018a1.322 1.322 0 11-1.322 1.322v-.013c0-.721.583-1.306 1.303-1.309zm5.261 4.272h.017a1.322 1.322 0 11-1.322 1.322v-.003a1.32 1.32 0 011.304-1.319h.001zm5.202-4.62h.025a1.329 1.329 0 11-1.329 1.337v-.015a1.32 1.32 0 011.303-1.32h.001zM6.574 16.125h.024a1.329 1.329 0 11-1.329 1.337v-.015a1.32 1.32 0 011.304-1.32h.001zm13.11-1.043l-5.133-4.424-8.384 6.609.434.807s7.352-6.052 7.841-6.317c.43.362 5.258 4.536 5.258 4.536l5.558-5.092-.601-.682s-4.454 4.09-4.974 4.563z"/></symbol><symbol id="icon-icon_quotes" viewBox="0 0 32 32"><path d="M6.856 14.748c0-4.094 0-4.772 3.43-4.772V2.362c-8 0-10.292 5.346-10.292 14.776v12.499h14.871V17.138H6.859v-2.391zm17.151 2.391v-2.391c0-4.094 0-4.772 3.429-4.772V2.362c-8 0-10.289 5.346-10.289 14.776v12.499h14.858V17.138h-8z"/></symbol><symbol id="icon-icon_raketa" viewBox="0 0 32 32"><path d="M23.795 17.044a24.58 24.58 0 003.997-6.358l.061-.16c.269-.63.556-1.442.799-2.272l.043-.171c.091-.337.187-.741.275-1.196l.054-.286c.02-.135.042-.253.062-.387.144-.824.226-1.772.226-2.74 0-.251-.006-.5-.016-.748l.001.035a10.722 10.722 0 01-.052-1.43v.015c.024-.034.047-.051.069-.084a.503.503 0 00.176-.508l.001.003a.279.279 0 01-.047-.05l-.001-.001a.932.932 0 01.044-.428l-.002.007c.052-.219-.103-.337-.337-.269a1.306 1.306 0 01-.493.101h-.001l-.057-.051a.569.569 0 00-.458.3l-.002.003c-.017.017-.034.051-.049.067s-.657.101-1.396.253a16.732 16.732 0 00-5.602 2.264l.068-.041a22.307 22.307 0 00-6.869 6.833l-.053.089a2.546 2.546 0 01-2.036 1.061h-.002a9.656 9.656 0 00-9.556 6.099l-.023.065a.842.842 0 00.92 1.211l-.005.001c13.32-.253 14.535 7.916 14.484 11.2-.012.741.461 1.112 1.108.724 4.84-2.88 4.52-8.32 4.072-10.829a3.139 3.139 0 01.6-2.332l-.006.008zm-1.499-3.671a2.708 2.708 0 01-1.975.852c-.5 0-.968-.135-1.37-.37l.013.007a2.598 2.598 0 01-1.003-3.582l-.007.012a2.96 2.96 0 01.312-.424l-.003.003a2.707 2.707 0 013.344-.481l-.013-.007a2.597 2.597 0 011.004 3.583l.007-.012a3.39 3.39 0 01-.314.425l.004-.004zm-11.717 17.97a11.838 11.838 0 004.395-5.511l.027-.08c.286-.691-.106-1.027-.743-.64a12.04 12.04 0 00-4.434 5.461l-.029.08c-.286.691.141 1.078.783.691zm-4.755.522c2.972-1.953 5.216-4.802 6.367-8.158l.033-.112c.264-.707-.133-1.044-.78-.657-2.971 1.941-5.226 4.762-6.415 8.09l-.035.112c-.256.691.17 1.078.83.724zm-.857-4.867a11.836 11.836 0 004.394-5.511l.027-.08c.286-.691-.106-1.027-.743-.623a12.017 12.017 0 00-4.433 5.444l-.029.08c-.288.691.136 1.078.783.691z"/></symbol><symbol id="icon-icon_right-arrow" viewBox="0 0 32 32"><path d="M16 32C7.166 31.996.006 24.834.006 16c0-8.837 7.163-16 16-16s16 7.163 16 16C31.997 24.835 24.835 31.994 16 32h-.001zm0-30.534C7.974 1.468 1.469 7.974 1.469 16c0 8.027 6.507 14.534 14.534 14.534S30.537 24.027 30.537 16c-.012-8.023-6.514-14.524-14.536-14.534H16zM9.529 26.467l6.265-10.529L9.529 5.739 27.49 16.103z"/></symbol><symbol id="icon-icon_tw" viewBox="0 0 32 32"><path d="M16 0C7.163 0 0 7.163 0 16s7.163 16 16 16 16-7.163 16-16S24.837 0 16 0zm6.506 13.111a8.969 8.969 0 01-13.822 7.935l.035.021c.224.026.485.042.75.043h.016a6.288 6.288 0 003.914-1.359l-.013.01a3.153 3.153 0 01-2.934-2.166l-.006-.022c.176.033.379.052.586.052h.031c.287 0 .564-.041.826-.118l-.021.005a3.15 3.15 0 01-2.528-3.083v-.04c.412.23.901.372 1.422.389h.005a3.153 3.153 0 01-.968-4.218l-.008.015a8.945 8.945 0 006.474 3.286l.022.001a2.964 2.964 0 01-.081-.701v-.018.001a3.153 3.153 0 015.447-2.155l.001.002a6.373 6.373 0 002.03-.777l-.029.016a3.167 3.167 0 01-1.37 1.73l-.014.008a6.338 6.338 0 001.85-.509l-.04.016a6.55 6.55 0 01-1.556 1.622l-.018.013z"/></symbol></defs></svg>