<svg xmlns="http://www.w3.org/2000/svg" width="32" height="32"><path d="M16 0C7.163 0 0 7.163 0 16s7.163 16 16 16 16-7.163 16-16S24.837 0 16 0zm6.506 13.111a8.969 8.969 0 01-13.822 7.935l.035.021c.224.026.485.042.75.043h.016a6.288 6.288 0 003.914-1.359l-.013.01a3.153 3.153 0 01-2.934-2.166l-.006-.022c.176.033.379.052.586.052h.031c.287 0 .564-.041.826-.118l-.021.005a3.15 3.15 0 01-2.528-3.083v-.04c.412.23.901.372 1.422.389h.005a3.153 3.153 0 01-.968-4.218l-.008.015a8.945 8.945 0 006.474 3.286l.022.001a2.964 2.964 0 01-.081-.701v-.018.001a3.153 3.153 0 015.447-2.155l.001.002a6.373 6.373 0 002.03-.777l-.029.016a3.167 3.167 0 01-1.37 1.73l-.014.008a6.338 6.338 0 001.85-.509l-.04.016a6.55 6.55 0 01-1.556 1.622l-.018.013z"/></svg>