<svg xmlns="http://www.w3.org/2000/svg" width="32" height="32"><path d="M16 0h-.004C7.157 0-.008 7.165-.008 16.004s7.165 16.004 16.004 16.004c8.837 0 16.002-7.163 16.004-16v-.004C32 7.167 24.837.002 16 0zm-3.999 23.758H8.002V9.756h3.999v14.002zM10.125 8.891h-.001a1.877 1.877 0 111.877-1.877v.003a1.874 1.874 0 01-1.874 1.874h-.008zm15.873 14.867h-3.999v-8.657c0-1.012-.289-1.73-1.535-1.73a2.404 2.404 0 00-2.46 1.713l-.004.017v8.657h-3.999V9.756H18v1.332a6.683 6.683 0 013.998-1.332h.001c1.297 0 3.999.778 3.999 5.466v8.536z"/></svg>