<svg xmlns="http://www.w3.org/2000/svg" width="32" height="32"><path d="M28.636 0H3.373A3.373 3.373 0 00.004 3.364v25.272A3.381 3.381 0 003.372 32h25.263a3.38 3.38 0 003.364-3.363V3.365A3.373 3.373 0 0028.635.001zM3.654 4.558h24.691v16.848H3.654V4.558zm26.032 22.91h-17.24c-.309 1.279-1.444 2.215-2.797 2.215s-2.488-.936-2.793-2.195l-.004-.02H2.315v-1.332h4.534c.306-1.284 1.444-2.224 2.801-2.224s2.495.94 2.797 2.204l.004.02h17.238v1.332zM18.946 6.997h3.443v11.555h-3.443V6.997zm-9.502 4.445h3.442v7.109H9.441v-7.109zm4.751-1.885h3.448v8.995h-3.446V9.557z"/></svg>