<svg xmlns="http://www.w3.org/2000/svg" width="32" height="32"><path d="M23.851 17.042a24.573 24.573 0 004.019-6.372l.062-.159c.271-.629.561-1.438.807-2.266l.044-.171c.09-.336.187-.747.276-1.198.02-.098.034-.189.053-.287.021-.123.044-.246.063-.377.144-.822.226-1.769.226-2.735 0-.253-.006-.505-.017-.755l.001.036a10.727 10.727 0 01-.051-1.444v.016a.64.64 0 00.068-.08l.001-.002a.498.498 0 00.177-.512l.001.003s-.021-.016-.048-.033a1.023 1.023 0 01.045-.442l-.002.007c.051-.222-.103-.336-.345-.263-.14.057-.303.09-.473.09h-.02.001l-.057-.041a.533.533 0 00-.461.292l-.001.003a.972.972 0 01-.049.067l.001-.001c-.026.041-.66.107-1.405.254a16.85 16.85 0 00-5.631 2.273l.069-.041A22.375 22.375 0 0014.3 9.741l-.053.089a2.516 2.516 0 01-2.051 1.058 9.714 9.714 0 00-9.606 6.105l-.023.066a.854.854 0 00.925 1.222l-.005.001c13.39-.246 14.61 7.918 14.562 11.2-.012.747.464 1.116 1.113.73 4.866-2.888 4.545-8.336 4.094-10.839a3.124 3.124 0 01.602-2.338l-.006.008zm-1.508-3.684a2.72 2.72 0 01-1.986.858c-.502 0-.973-.136-1.377-.372l.013.007a2.582 2.582 0 01-1.003-3.573l-.007.012c.092-.159.195-.296.311-.42l-.001.001a2.732 2.732 0 013.363-.485l-.013-.007a2.593 2.593 0 011.003 3.581l.007-.012a2.769 2.769 0 01-.313.412l.002-.002zM10.565 31.36c2.402-1.419 3.792-4.037 4.445-5.604.288-.689-.107-1.026-.747-.632a12.053 12.053 0 00-4.457 5.458l-.029.08c-.288.689.138 1.083.788.697zm-4.78.517c3.667-1.986 5.639-6.17 6.437-8.279.264-.697-.135-1.034-.785-.656-3.851 2.273-5.731 6.195-6.482 8.213-.261.697.167 1.083.83.722zm-.861-4.866c2.402-1.419 3.791-4.029 4.444-5.596.289-.689-.107-1.026-.747-.632a12.066 12.066 0 00-4.457 5.458l-.029.08c-.288.689.141 1.075.788.689z"/></svg>