<svg xmlns="http://www.w3.org/2000/svg" width="32" height="32"><path d="M20.174 30.352a1.57 1.57 0 01-.614-1.015l-.001-.009L19.351 28h-6.64l-.21 1.328a1.56 1.56 0 01-.61 1.021l-.004.003c-.555.408-.994.76-.555.824.422.056 4.406 0 4.701 0s4.278.056 4.701 0c.434-.064-.005-.416-.56-.824zM8.545 19.704c1.775-.016 1.996-.44 2.574-2.224 1.067-2.816 5.873.736 2.895 1.968s-7.245.272-5.47.256zM26.746 1.16c-.862-.688-2.288-.352-3.187.768l-9.106 12.944c-.899 1.112-.894.904-.034 1.592s.654.744 1.553-.368L26.678 4.44c.899-1.112.933-2.584.069-3.28zm-2.342 1.552a5.478 5.478 0 00-.564-.503l-.012-.009a2.073 2.073 0 011.983-.886l-.01-.001a2.75 2.75 0 00-1.389 1.383l-.007.017zm6.38 2.824h-4.005L25.01 7.464h5.132v15.4H1.916v-15.4h16.419l1.36-1.928H1.273a1.285 1.285 0 00-1.28 1.285v18.611c0 .707.573 1.28 1.28 1.28h29.51a1.28 1.28 0 001.28-1.28V6.821c0-.708-.573-1.282-1.28-1.285z"/></svg>