<svg xmlns="http://www.w3.org/2000/svg" width="32" height="32"><path d="M9.468 8.135l-4.384.008s-3.466.152-3.46 3.512v.093a2.766 2.766 0 00-.003 4.567l.009.006c.005.413.141 3.832 3.331 3.823 0 0 1.321.051 1.207 2.164l.013 8.354a1.104 1.104 0 001.078 1.34l.058-.001h-.003s3.922-.564 1.971-4.573c1.468-1.524-.631-2.408.205-4.901a6.236 6.236 0 001.121-2.417l.008-.042.051-10.669a1.067 1.067 0 00-1.209-1.263l.006-.001zm20.09 2.147L29.541.539c0-1.272-1.078.143-1.078.143C23.377 8.623 12.847 8 12.847 8a.907.907 0 00-1.043 1.075l-.001-.006.018 9.204a1.066 1.066 0 001.065 1.054l.05-.001h-.002c11.768-.017 15.79 7.427 15.79 7.427s.935 1.145.867-.051l-.017-9.726a3.79 3.79 0 00.004-6.685l-.02-.01zM17.974 8.977s6.923-.968 10.274-6.173c-.003 0-1.3 6.08-10.274 6.173zm12.872 5.735a5.012 5.012 0 00-.986-3.625l.009.013s1.794 1.044.977 3.613z"/></svg>