<!-- Generated by IcoMoon.io -->
<svg version="1.1" xmlns="http://www.w3.org/2000/svg" width="32" height="32" viewBox="0 0 32 32">
<title>icon_monitor</title>
<path d="M30.066 1.391h-28.127c-1.078 0.012-1.948 0.889-1.948 1.969 0 0.002 0 0.005 0 0.007v-0 20.522c0 0.003-0 0.006-0 0.009 0 1.082 0.868 1.962 1.946 1.981l0.002 0h28.127c1.080-0.019 1.948-0.898 1.948-1.981 0-0.003 0-0.006-0-0.009v0-20.522c0-0.002 0-0.005 0-0.007 0-1.080-0.87-1.957-1.947-1.969h-0.001zM29.575 22.442h-27.147v-18.268h27.147v18.268zM23.345 30.609h-14.632l3.68-3.798h7.271zM14.496 9.878c0.005-0 0.012-0 0.018-0 0.73 0 1.322 0.592 1.322 1.322s-0.592 1.322-1.322 1.322c-0.73 0-1.322-0.592-1.322-1.322v0c-0-0.004-0-0.008-0-0.013 0-0.721 0.583-1.306 1.303-1.309h0zM19.757 14.15c0.005-0 0.011-0 0.017-0 0.73 0 1.322 0.592 1.322 1.322s-0.592 1.322-1.322 1.322c-0.73 0-1.322-0.592-1.322-1.322v0c0-0.001 0-0.002 0-0.003 0-0.724 0.583-1.311 1.304-1.319h0.001zM24.959 9.53c0.007-0 0.016-0 0.025-0 0.734 0 1.329 0.595 1.329 1.329s-0.595 1.329-1.329 1.329c-0.731 0-1.325-0.591-1.329-1.321v-0c-0-0.005-0-0.010-0-0.015 0-0.723 0.582-1.311 1.303-1.32h0.001zM6.574 16.125c0.007-0 0.015-0 0.024-0 0.734 0 1.329 0.595 1.329 1.329s-0.595 1.329-1.329 1.329c-0.731 0-1.325-0.591-1.329-1.321v-0c-0-0.005-0-0.010-0-0.015 0-0.724 0.582-1.312 1.304-1.32h0.001zM19.684 15.082c-0.534-0.459-5.133-4.424-5.133-4.424l-8.384 6.609 0.434 0.807s7.352-6.052 7.841-6.317c0.43 0.362 5.258 4.536 5.258 4.536l5.558-5.092-0.601-0.682s-4.454 4.090-4.974 4.563z"></path>
</svg>
