<!-- Generated by IcoMoon.io -->
<svg version="1.1" xmlns="http://www.w3.org/2000/svg" width="32" height="32" viewBox="0 0 32 32">
<title>icon_like</title>
<path d="M28.753 9.878h-7.179c-0.312 0-0.398-0.195-0.223-0.459 0.654-1.095 1.041-2.416 1.041-3.826 0-0.457-0.041-0.905-0.118-1.339l0.007 0.046c-0.185-2.101-0.633-2.908-1.252-2.908-1.016 0-2.489 2.198-3.982 4.369-1.916 2.39-4.249 4.356-6.903 5.812l-0.119 0.060c-0.279 0.154-0.618 0.313-0.968 0.451l-0.063 0.022-3.787 1.405c-0.305 0.137-0.517 0.431-0.531 0.777l-0 0.002v11.506c0.016 0.365 0.206 0.683 0.489 0.874l0.004 0.003 1.631 0.946c0.307 0.156 0.665 0.264 1.044 0.305l0.014 0.001c1.445 0.157 2.744 0.681 3.832 1.477l-0.022-0.016c0.266 0.181 0.666 0.487 0.927 0.668 0.499 0.347 1.117 0.555 1.783 0.557h11.374c1.716-0.023 3.155-1.189 3.589-2.77l0.006-0.026c0.065-0.32 0.107-0.835 0.167-1.155l2.401-12.828c0.049-0.233 0.077-0.5 0.077-0.774 0-0.134-0.007-0.267-0.020-0.397l0.001 0.016c-0.252-1.578-1.592-2.773-3.216-2.796l-0.003-0zM3.014 12.397h-2.072c-0.522 0.008-0.942 0.433-0.942 0.956 0 0.006 0 0.013 0 0.019v-0.001 13.44c-0 0.003-0 0.006-0 0.010 0 0.525 0.419 0.951 0.941 0.964l0.001 0h2.072c0.523-0.012 0.942-0.439 0.942-0.964 0-0.003-0-0.007-0-0.011v0.001-13.44c0-0.005 0-0.012 0-0.018 0-0.523-0.42-0.948-0.941-0.956h-0.001z"></path>
</svg>
