<!-- Generated by IcoMoon.io -->
<svg version="1.1" xmlns="http://www.w3.org/2000/svg" width="32" height="32" viewBox="0 0 32 32">
<title>icon_head</title>
<path d="M12.241 6.925c1.435 0.005 2.596 1.169 2.596 2.605 0 1.439-1.166 2.605-2.605 2.605s-2.605-1.166-2.605-2.605c0-0.002 0-0.005 0-0.007v0c0.005-1.436 1.171-2.598 2.607-2.598 0.002 0 0.005 0 0.007 0h-0zM17.921 17.562c0.92 0.003 1.665 0.75 1.665 1.67 0 0.923-0.748 1.67-1.67 1.67-0.92 0-1.667-0.744-1.67-1.664v-0c0.001-0.925 0.75-1.674 1.674-1.677h0zM27.11 13.734c2.106-10.278-6.272-14.989-15.565-13.504s-8.947 7.091-9.494 9.766c-1.089 6.707 5.834 14.208 5.834 14.208l-0.396 7.795h11.274l0.863-3.584s0.489 0.819 3.401 1.062 2.56-3.302 2.56-3.302 1.939-0.858 1.939-1.498c-0.219-0.612-0.622-1.114-1.141-1.452l-0.011-0.007c0.145 0.034 0.312 0.053 0.483 0.053 0.444 0 0.857-0.129 1.205-0.353l-0.009 0.005c0.444-0.525-0.545-2.394-0.545-2.394 0.941-0.042 1.785-0.424 2.42-1.026l-0.002 0.002c0.901-0.986-2.817-3.891-2.817-5.773zM11.009 15.142s-0.063-0.691-0.093-1.037c-0.318-0.089-0.587-0.19-0.845-0.309l0.035 0.014c-0.307 0.269-0.92 0.781-0.92 0.781s-0.105 0.064-0.157 0.090-1.024-0.090-1.024-0.090l-1.679-1.984v-1.178s0.64-0.538 0.969-0.819c-0.064-0.236-0.11-0.511-0.127-0.794l-0.001-0.012-1.268-0.576-0.339-0.986 0.040-0.166 1.084-2.355 1.152-0.307 1.092 0.499c0.208-0.164 0.442-0.325 0.687-0.47l0.030-0.017c-0.037-0.435-0.108-1.306-0.108-1.306l0.838-0.845 2.589-0.205 0.838 0.832s0.052 0.666 0.081 0.998c0.383 0.114 0.703 0.236 1.012 0.378l-0.047-0.019c0.279-0.23 0.841-0.717 0.841-0.717h1.187l1.692 1.971v1.178l-1.030 0.883c0.046 0.213 0.078 0.463 0.090 0.719l0 0.011c0.433 0.256 1.299 0.755 1.299 0.755l0.301 1.139-1.299 2.24-1.152 0.307-1.011-0.576c-0.189 0.141-0.393 0.269-0.604 0.397 0.040 0.448 0.128 1.344 0.128 1.344l-0.838 0.832-2.586 0.23zM21.558 21.747l-0.735 0.192s-0.431-0.243-0.649-0.371c-0.112 0.092-0.238 0.177-0.371 0.25l-0.013 0.006 0.078 0.858-0.536 0.538-1.664 0.154-0.538-0.538s-0.041-0.448-0.061-0.666c-0.2-0.058-0.37-0.123-0.533-0.201l0.021 0.009c-0.198 0.179-0.591 0.512-0.591 0.512-0.038 0.014-0.071 0.032-0.101 0.052l0.002-0.001c-0.033 0.013-0.66-0.051-0.66-0.051l-1.076-1.28v-0.755s0.413-0.346 0.621-0.525c-0.042-0.153-0.072-0.332-0.084-0.516l-0-0.009c-0.271-0.115-0.814-0.371-0.814-0.371l-0.218-0.627 0.024-0.102 0.695-1.51 0.737-0.192s0.466 0.205 0.7 0.32c0.133-0.106 0.283-0.212 0.439-0.308l0.020-0.012c-0.023-0.282-0.068-0.845-0.068-0.845l0.536-0.538 1.664-0.128 0.538 0.538s0.033 0.422 0.051 0.64c0.245 0.072 0.45 0.151 0.648 0.242l-0.029-0.012 0.539-0.461h0.768l1.085 1.267v0.755s-0.44 0.371-0.659 0.563c0.030 0.14 0.050 0.302 0.056 0.469l0 0.005c0.278 0.154 0.835 0.474 0.835 0.474l0.192 0.742z"></path>
</svg>
