<!-- Generated by IcoMoon.io -->
<svg version="1.1" xmlns="http://www.w3.org/2000/svg" width="32" height="32" viewBox="0 0 32 32">
<title>icon_raketa</title>
<path d="M23.795 17.044c1.623-1.867 2.986-4.019 3.997-6.358l0.061-0.16c0.269-0.63 0.556-1.442 0.799-2.272l0.043-0.171c0.091-0.337 0.187-0.741 0.275-1.196 0.020-0.101 0.035-0.185 0.054-0.286 0.020-0.135 0.042-0.253 0.062-0.387 0.144-0.824 0.226-1.772 0.226-2.74 0-0.251-0.006-0.5-0.016-0.748l0.001 0.035c-0.036-0.335-0.056-0.724-0.056-1.117 0-0.105 0.001-0.209 0.004-0.313l-0 0.015c0.024-0.034 0.047-0.051 0.069-0.084 0.116-0.093 0.189-0.235 0.189-0.394 0-0.039-0.005-0.078-0.013-0.114l0.001 0.003c-0.018-0.015-0.033-0.031-0.047-0.050l-0.001-0.001c-0.005-0.036-0.008-0.077-0.008-0.119 0-0.108 0.018-0.212 0.052-0.309l-0.002 0.007c0.052-0.219-0.103-0.337-0.337-0.269-0.146 0.062-0.315 0.099-0.493 0.101h-0.001l-0.057-0.051c-0.2 0.016-0.369 0.133-0.458 0.3l-0.002 0.003c-0.017 0.017-0.034 0.051-0.049 0.067s-0.657 0.101-1.396 0.253c-2.093 0.44-3.946 1.21-5.602 2.264l0.068-0.041c-2.813 1.791-5.131 4.109-6.869 6.833l-0.053 0.089c-0.462 0.638-1.201 1.051-2.036 1.061h-0.002c-0.171-0.011-0.371-0.017-0.572-0.017-4.082 0-7.573 2.534-8.984 6.116l-0.023 0.065c-0.059 0.112-0.094 0.246-0.094 0.387 0 0.465 0.377 0.842 0.842 0.842 0.059 0 0.117-0.006 0.172-0.018l-0.005 0.001c13.32-0.253 14.535 7.916 14.484 11.2-0.012 0.741 0.461 1.112 1.108 0.724 4.84-2.88 4.52-8.32 4.072-10.829-0.020-0.132-0.031-0.285-0.031-0.44 0-0.71 0.235-1.365 0.631-1.892l-0.006 0.008zM22.296 13.373c-0.496 0.525-1.197 0.852-1.975 0.852-0.5 0-0.968-0.135-1.37-0.37l0.013 0.007c-0.813-0.449-1.354-1.301-1.354-2.279 0-0.475 0.128-0.92 0.351-1.303l-0.007 0.012c0.097-0.159 0.199-0.296 0.312-0.424l-0.003 0.003c0.496-0.525 1.197-0.852 1.974-0.852 0.5 0 0.968 0.135 1.37 0.371l-0.013-0.007c0.813 0.448 1.355 1.3 1.355 2.279 0 0.475-0.128 0.921-0.351 1.304l0.007-0.012c-0.1 0.159-0.202 0.296-0.314 0.425l0.004-0.004zM10.579 31.343c1.996-1.361 3.529-3.271 4.395-5.511l0.027-0.080c0.286-0.691-0.106-1.027-0.743-0.64-1.997 1.353-3.538 3.242-4.434 5.461l-0.029 0.080c-0.286 0.691 0.141 1.078 0.783 0.691zM5.824 31.865c2.972-1.953 5.216-4.802 6.367-8.158l0.033-0.112c0.264-0.707-0.133-1.044-0.78-0.657-2.971 1.941-5.226 4.762-6.415 8.090l-0.035 0.112c-0.256 0.691 0.17 1.078 0.83 0.724zM4.967 26.998c1.996-1.361 3.528-3.271 4.394-5.511l0.027-0.080c0.286-0.691-0.106-1.027-0.743-0.623-1.995 1.348-3.536 3.231-4.433 5.444l-0.029 0.080c-0.288 0.691 0.136 1.078 0.783 0.691z"></path>
</svg>
